# xmcd
#
# Track frame offsets:
#	150
#	13313
#	29414
#	47676
#	59934
#	75950
#	89130
#	103086
#	118374
#	131940
#	148326
#	161424
#	177869
#	191428
#	203804
#	216285
#
# Disc length: 3083 seconds
#
# Revision: 1
# Processed by: cddbd v1.5.2PL0 Copyright (c) Steve Scherf et al.
# Submitted via: audiograbber 1.83.01
#
DISCID=f90c0910
DTITLE=Alpen DJ - Die Power der Berge - CD2
DYEAR=2001
DGENRE=Alpen-Pop
TTITLE0=Zellberg Buam - Wenn die Hütten kracht
TTITLE1=Bergfeuer - Dance Of Mania
TTITLE2=Die Rieserferner - Die Berge geben mir die Kraft
TTITLE3=Alpen-Yuppies - Koane Nacht ohne Musik
TTITLE4=DJ Marco - Glory Halleluja
TTITLE5=Die Zillertaler - So a super Tag
TTITLE6=Martin Lackner - Hey Di Ho
TTITLE7="Cool Man" Peter Steiner - All das gönn' ich mir
TTITLE8=Dolomitensextett Lienz - Die Hände zum Himmel
TTITLE9=Wilhelm Toll and die Eidgenossen - Dä Stirnimaa (Radio Mix) deutsch
TTITLE10=Die Bachler mit Evelin - Ziwui Ziwui
TTITLE11=Bertl - Jetzt komm I (Who The Fuck Is Anton?)
TTITLE12=Die fidelen Mölltaler - A Flascherl Bier, a Flascherl Wein
TTITLE13=Die jungen Zillertaler - Dance Alpin
TTITLE14=Die Edlseer - Vollgas
TTITLE15=Klostertaler - Drei Tiroler mit dem Gummiboot
EXTD=
EXTT0=
EXTT1=
EXTT2=
EXTT3=
EXTT4=
EXTT5=
EXTT6=
EXTT7=
EXTT8=
EXTT9=
EXTT10=
EXTT11=
EXTT12=
EXTT13=
EXTT14=
EXTT15=
PLAYORDER=
